<?xml version="1.0" encoding="UTF-8" standalone="no"?>
<!DOCTYPE svg PUBLIC "-//W3C//DTD SVG 1.1//EN" "http://www.w3.org/Graphics/SVG/1.1/DTD/svg11.dtd">
<svg width="100%" height="100%" viewBox="0 0 500 500" version="1.1" xmlns="http://www.w3.org/2000/svg" xmlns:xlink="http://www.w3.org/1999/xlink" xml:space="preserve" xmlns:serif="http://www.serif.com/" style="fill-rule:evenodd;clip-rule:evenodd;stroke-linejoin:round;stroke-miterlimit:2;">
    <rect id="Logo" x="0" y="0" width="500" height="500" style="fill:none;"/>
    <clipPath id="_clip1">
        <rect id="Logo1" serif:id="Logo" x="0" y="0" width="500" height="500"/>
    </clipPath>
    <g clip-path="url(#_clip1)">
        <g>
            <path d="M166.406,376.121c0.423,0 0.845,0.845 1.267,2.112c0,0.845 -0.422,1.267 -0.844,1.689l-27.453,16.894l-0.845,0c-0.422,0 -0.422,-0.422 -0.844,-0.422c-0.423,-0.422 -0.845,-0.845 -0.845,-1.689l-0,-32.521c-0,-0.845 0.422,-1.267 0.845,-1.69c0.422,-0.422 0.844,-0.422 1.267,0l27.452,15.627Zm-104.32,-59.551c0.422,0.422 0.844,0.844 1.267,2.111c-0,0.845 -0.423,1.268 -0.845,1.69l-27.453,16.894l-0.845,-0c-0.422,-0 -0.422,-0.422 -0.844,-0.422c-0.423,-0.423 -0.845,-0.845 -0.845,-1.69l0,-32.521c0,-0.845 0.422,-1.267 0.845,-1.689c0.422,-0.423 0.844,-0.423 1.267,-0l27.453,15.627Zm300.714,42.657c0.422,-0.422 1.267,-0.422 1.689,-0.422c0.422,0.422 0.845,0.845 0.845,1.689l-0,32.521c-0,0.845 -0.423,1.267 -0.845,1.69c-0.422,0.422 -0.422,0.422 -0.845,0.422l-0.844,0l-27.453,-16.894c-0.422,-0.422 -0.845,-0.845 -0.845,-1.689c0,-0.845 0.423,-1.267 0.845,-1.69l27.453,-15.627Zm103.053,-57.44c0.423,-0.422 1.267,-0.422 1.69,-0.422c0.422,0.422 0.845,0.845 0.845,1.689l-0,32.522c-0,0.844 -0.423,1.267 -0.845,1.689c-0.423,0.422 -0.423,0.422 -0.845,0.422l-0.845,0l-27.452,-16.894c-0.423,-0.422 -0.845,-0.844 -0.845,-1.689c-0,-0.845 0.422,-1.267 0.845,-1.69l27.452,-15.627Zm27.453,-62.085c3.672,2.155 6.694,3.242 6.694,11.826l0,75.601c-0,0.757 -0.417,1.038 -0.781,1.267l-24.496,13.937c-0,0.423 -0.423,0.423 -0.845,0c-0.422,-0.422 -0.422,-0.845 -0.422,-1.267l-0,-38.434c0.422,-5.49 -4.646,-10.981 -9.714,-8.025l-62.508,35.478c-2.534,1.267 -4.224,4.646 -4.224,8.025l0,47.725c0,0.423 0,0.845 -0.422,1.267l-25.341,14.36c-0,0.423 -0.423,0.423 -0.845,0c-0.422,-0.422 -0.422,-0.844 -0.422,-1.267l-0,-38.434c-0,-2.956 -0.845,-5.49 -2.957,-7.18c-2.112,-1.689 -4.646,-2.111 -6.757,-0.844l-73.49,42.235c-2.534,1.267 -4.223,4.646 -4.223,8.024l-0,47.726c-0,0.422 -0,0.845 -0.422,1.267l-27.031,15.627c-0.845,0.423 -1.689,-0.422 -1.689,-1.267l-0,-78.557c-0.845,-6.758 2.956,-14.36 7.602,-17.317c30.832,-17.738 167.674,-95.451 213.287,-121.637c4.224,-2.112 4.224,-8.024 0,-10.136l-43.079,-21.962l-0,15.204c-0,4.646 -2.534,8.87 -6.758,11.404l-78.557,45.614c-2.534,1.689 -5.491,2.111 -8.447,1.689c-0.845,3.379 -2.957,6.335 -5.913,8.025l-78.558,45.614c-3.801,2.111 -8.869,2.534 -13.092,-0l-78.558,-45.192c-2.956,-1.689 -4.646,-3.801 -5.913,-6.758c-2.956,0.423 -5.49,-0.422 -8.024,-1.689l-78.558,-45.192c-4.223,-2.111 -6.757,-6.757 -6.757,-11.403l-0,-15.627l-35.056,18.161c-5.068,2.957 -5.49,9.714 -0.422,12.671c46.881,26.608 181.189,103.053 212.02,120.792c4.646,2.957 8.447,10.559 7.603,17.316l-0,78.558c-0,0.422 -0,0.844 -0.423,1.267c0,-0 -0.422,0.422 -0.844,-0l-27.031,-15.627c0,-0.423 -0.422,-0.845 -0.422,-1.267l-0,-47.726c-0,-3.379 -1.69,-6.758 -4.224,-8.025l-73.489,-42.235c-5.068,-2.956 -9.714,2.534 -9.714,8.025l0,38.434c0,0.422 0,0.845 -0.422,1.267l-0.845,-0l-25.341,-14.36c0,-0.422 -0.422,-0.845 -0.422,-1.267l-0,-47.726c-0,-3.379 -1.69,-6.757 -4.224,-8.024l-62.508,-35.9c-5.068,-2.957 -10.136,2.534 -9.714,8.024l0,38.434c0,0.423 0,0.845 -0.422,1.267l-0.845,0l-24.496,-13.937c-0.423,-0.422 -0.845,-0.845 -0.845,-1.267l0,-78.135c0,-2.957 2.534,-5.491 5.491,-7.18l57.439,-30.409l-0.422,-67.154c-0,-4.646 2.534,-8.87 6.758,-11.404l78.135,-45.614c2.956,-1.689 6.335,-2.111 9.714,-1.267c1.267,-2.534 2.956,-5.068 5.49,-6.335l78.558,-45.614c3.801,-2.534 8.869,-2.534 13.092,0l78.558,44.769c2.112,1.267 3.801,2.957 5.068,5.069c2.956,-0.423 5.913,0.422 8.447,1.689l78.557,45.191c4.224,2.112 6.758,6.758 6.758,11.404l0.422,67.154l61.241,31.254Zm-74.334,-0c4.224,-2.534 6.758,-6.758 6.758,-11.826l-0.422,-83.203c-0,-4.646 -2.534,-8.87 -6.758,-11.404l-72.222,-41.39c-3.801,-2.534 -8.869,-2.534 -13.093,-0l-71.8,41.813c-2.956,1.689 -5.068,4.223 -5.913,7.18l76.446,43.924c4.224,2.112 6.758,6.758 6.758,11.404l0.422,87.004c2.534,0.422 5.491,-0.422 8.025,-1.689l71.799,-41.813Zm-249.609,-157.115c-2.534,1.267 -4.224,3.379 -5.491,5.491l75.601,43.502c2.957,1.689 4.646,3.801 5.913,6.758l3.379,-0c0.845,-3.379 2.956,-6.336 5.913,-8.025l76.023,-43.925c-0.845,-1.689 -2.534,-3.378 -4.223,-4.223l-72.223,-41.391c-3.801,-2.534 -8.869,-2.534 -13.092,0l-71.8,41.813Zm-14.36,114.457c-0,-4.646 2.534,-9.291 6.758,-11.403l76.867,-44.769c-1.267,-2.112 -2.956,-4.224 -5.49,-5.491l-72.645,-41.39c-3.801,-2.534 -8.869,-2.534 -13.092,-0l-71.8,41.812c-4.224,2.112 -6.758,6.758 -6.758,11.404l0.423,83.203c-0,4.646 2.534,8.869 6.757,11.404l72.222,41.39c2.112,1.267 4.646,1.689 7.18,1.689l-0.422,-87.849Zm171.052,97.986c3.801,-2.534 6.335,-7.18 6.758,-11.404l-0.423,-83.203c0,-4.646 -2.534,-8.869 -6.757,-11.403l-72.222,-41.391c-3.801,-2.534 -8.87,-2.534 -13.093,0l-71.8,41.813c-4.223,2.112 -6.757,6.758 -6.757,11.403l0.422,83.204c-0,4.646 2.534,8.869 6.757,11.403l72.223,41.391c3.801,2.534 8.869,2.534 13.092,-0l71.8,-41.813Z" style="fill:#3f3e3f;"/>
            <path d="M319.298,277.291c-0,4.646 -2.535,9.292 -6.758,11.404l-51.105,29.986c-7.602,4.224 -6.757,-3.378 -6.757,-8.024c-0,-1.267 -0.423,-61.241 -0.423,-61.241c0,-4.646 2.535,-9.292 6.758,-11.404l51.105,-29.987c7.602,-4.223 6.757,3.379 6.757,8.025c0,1.267 0.423,61.241 0.423,61.241Z" style="fill:#9fb19e;fill-rule:nonzero;"/>
            <path d="M232.716,320.793l-51.527,-29.564c-4.224,-2.534 -6.758,-6.758 -6.758,-11.404c0,0 -0.422,-59.974 -0.422,-61.241c-0,-4.646 -0.845,-11.826 6.757,-8.024l51.527,29.564c4.224,2.534 6.758,6.758 6.758,11.404c-0,-0 0.422,59.974 0.422,61.241c0,4.645 1.267,11.825 -6.757,8.024Z" style="fill:#2952e1;fill-rule:nonzero;"/>
            <path d="M304.515,197.467l-49.837,29.142c-4.224,2.534 -8.87,2.534 -13.093,-0l-50.26,-28.72c-3.379,-2.112 -7.18,-5.068 1.267,-9.714c0.423,-0.422 48.571,-28.298 48.571,-28.298c4.223,-2.534 9.291,-2.534 13.092,0c0,0 48.571,27.876 48.993,27.876c8.447,4.645 4.646,7.602 1.267,9.714Z" style="fill:#777476;fill-rule:nonzero;"/>
            <path d="M415.171,224.075c0,4.646 -2.534,9.292 -6.757,11.403l-51.105,29.987c-7.602,4.224 -6.757,-3.379 -6.757,-8.024c-0,-1.267 -0.423,-61.241 -0.423,-61.241c0,-4.646 2.534,-9.292 6.758,-11.404l51.104,-29.987c7.603,-4.223 6.758,3.379 6.758,8.025c0.422,1.267 0.422,61.241 0.422,61.241Z" style="fill:#f29217;fill-rule:nonzero;"/>
            <path d="M397.855,145.095l-0.422,0.422l-49.838,28.72c-4.223,2.534 -9.292,2.534 -13.093,0l-49.415,-28.297c-0.422,-0 -0.422,-0.423 -0.422,-0.423c-3.379,-2.111 -7.18,-5.068 1.267,-9.714c0.422,-0.422 0.844,-0.422 1.267,-0.844l47.726,-27.453c2.111,-1.267 4.223,-1.69 6.757,-1.69c2.112,0 4.646,0.423 6.758,1.69l47.725,27.453c0.423,0.422 0.845,0.422 1.268,0.844c7.179,4.224 3.801,6.758 0.422,9.292Z" style="fill:#d65687;fill-rule:nonzero;"/>
            <path d="M135.575,265.043l-51.527,-29.565c-4.224,-2.534 -6.758,-6.757 -6.758,-11.403c0,-0 -0.422,-59.974 -0.422,-61.241c-0,-4.646 -0.845,-11.826 6.758,-8.025l51.526,29.565c4.224,2.534 6.758,6.757 6.758,11.403c0,0 0.422,59.974 0.422,61.241c0,4.646 0.845,11.826 -6.757,8.025Z" style="fill:#f4d026;fill-rule:nonzero;"/>
            <path d="M211.176,142.561l-49.838,29.142c-4.223,2.534 -9.292,2.534 -13.093,0c0,0 -49.837,-28.72 -50.26,-28.72c-3.378,-2.111 -7.179,-5.068 1.268,-9.714c0.422,-0.422 48.57,-28.297 48.57,-28.297c2.112,-1.267 4.223,-1.69 6.758,-1.69c2.111,0 4.645,0.423 6.757,1.69c0,-0 48.571,27.875 48.993,27.875c7.602,4.646 4.223,7.18 0.845,9.714Z" style="fill:#643e9a;fill-rule:nonzero;"/>
            <path d="M304.515,91.457l-49.837,29.142c-4.224,2.534 -8.87,2.534 -13.093,-0l-50.26,-28.72c-3.379,-2.112 -7.18,-5.068 1.267,-9.714c0.423,-0.423 48.571,-28.298 48.571,-28.298c4.223,-2.534 9.291,-2.534 13.092,0c0,0 48.571,27.875 48.993,27.875c8.447,4.646 5.068,7.18 1.267,9.715Z" style="fill:#3babc3;fill-rule:nonzero;"/>
        </g>
    </g>
</svg>
